<svg xmlns="http://www.w3.org/2000/svg" width="1920" height="1080"><path d="M397-254l297 15 327 2z" fill="#d2ecb3" stroke="#d2ecb3" stroke-width="1.51"/><path d="M1021-237l137 36 368-1z" fill="#a6d699" stroke="#a6d699" stroke-width="1.51"/><path d="M1021-237l505 35 160-4z" fill="#9dcb91" stroke="#9dcb91" stroke-width="1.51"/><path d="M1621 1309l-170 14 483-11z" fill="#0c6335" stroke="#0c6335" stroke-width="1.51"/><path d="M1801 1295l-180 14 313 3z" fill="#055f33" stroke="#055f33" stroke-width="1.51"/><path d="M1686-206l58 26 233-11z" fill="#8bb481" stroke="#8bb481" stroke-width="1.51"/><path d="M2043 638l-68 178 78 49z" fill="#217c44" stroke="#217c44" stroke-width="1.51"/><path d="M2036 1043l15 63 2-241z" fill="#0e6737" stroke="#0e6737" stroke-width="1.51"/><path d="M1975 95l-3 128 104 31z" fill="#6d9d64" stroke="#6d9d64" stroke-width="1.51"/><path d="M2051 1106l-11 183 68-858z" fill="#136a38" stroke="#136a38" stroke-width="1.51"/><path d="M2053 865l-2 241 57-675z" fill="#1e7741" stroke="#1e7741" stroke-width="1.51"/><path d="M2065 518l-22 120 65-207z" fill="#428952" stroke="#428952" stroke-width="1.51"/><path d="M2043 638l10 227 55-434z" fill="#33824b" stroke="#33824b" stroke-width="1.51"/><path d="M2076 254l-132 107 164 70z" fill="#5b945b" stroke="#5b945b" stroke-width="1.51"/><path d="M2079-174L1943-69l174 57z" fill="#81a470" stroke="#81a470" stroke-width="1.51"/><path d="M2117-12L1975 95l151-30z" fill="#779f69" stroke="#779f69" stroke-width="1.51"/><path d="M1975 95l101 159 50-189z" fill="#719d65" stroke="#719d65" stroke-width="1.51"/><path d="M2076 254l32 177 18-366z" fill="#64955e" stroke="#64955e" stroke-width="1.51"/><path d="M1985 644l-10 172 68-178z" fill="#2b8349" stroke="#2b8349" stroke-width="1.51"/><path d="M1987 1032l49 11 17-178z" fill="#106a38" stroke="#106a38" stroke-width="1.51"/><path d="M1943-69l32 164 142-107z" fill="#7ca46d" stroke="#7ca46d" stroke-width="1.51"/><path d="M1944 361l121 157 43-87z" fill="#4f9057" stroke="#4f9057" stroke-width="1.51"/><path d="M1927 1089l7 223 106-23z" fill="#005b32" stroke="#005b32" stroke-width="1.51"/><path d="M1927 1089l113 200 11-183z" fill="#005f33" stroke="#005f33" stroke-width="1.51"/><path d="M1955 584l88 54 22-120z" fill="#3c8950" stroke="#3c8950" stroke-width="1.51"/><path d="M1972 223l-28 138 132-107z" fill="#649b60" stroke="#649b60" stroke-width="1.51"/><path d="M1977-191l-34 122 136-105z" fill="#84a777" stroke="#84a777" stroke-width="1.51"/><path d="M1975 816l12 216 66-167z" fill="#17713c" stroke="#17713c" stroke-width="1.51"/><path d="M1944 361l11 223 110-66z" fill="#4a9156" stroke="#4a9156" stroke-width="1.51"/><path d="M1955 584l30 60 58-6z" fill="#37884e" stroke="#37884e" stroke-width="1.51"/><path d="M2036 1043l-49-11 64 74z" fill="#096436" stroke="#096436" stroke-width="1.51"/><path d="M1987 1032l-60 57 124 17z" fill="#086636" stroke="#086636" stroke-width="1.51"/><path d="M1975 816l-149 198 161 18z" fill="#14723b" stroke="#14723b" stroke-width="1.51"/><path d="M1158-201l166 26 202-27z" fill="#a0d092" stroke="#a0d092" stroke-width="1.51"/><path d="M1927 1089l-126 206 133 17z" fill="#006034" stroke="#006034" stroke-width="1.51"/><path d="M1944 361l-120 34 131 189z" fill="#51975a" stroke="#51975a" stroke-width="1.51"/><path d="M1805 260l139 101 28-138z" fill="#66a062" stroke="#66a062" stroke-width="1.51"/><path d="M1789 846l37 168 149-198z" fill="#1a7b40" stroke="#1a7b40" stroke-width="1.51"/><path d="M1943-69L1764 48l211 47z" fill="#7eab6f" stroke="#7eab6f" stroke-width="1.51"/><path d="M1805 260l167-37 3-128z" fill="#6fa366" stroke="#6fa366" stroke-width="1.51"/><path d="M1830-114l113 45 34-122z" fill="#86ad78" stroke="#86ad78" stroke-width="1.51"/><path d="M1798 718l177 98 10-172z" fill="#288749" stroke="#288749" stroke-width="1.51"/><path d="M1826 1014l101 75 60-57z" fill="#0b6c39" stroke="#0b6c39" stroke-width="1.51"/><path d="M1744-180l86 66 147-77z" fill="#89b17d" stroke="#89b17d" stroke-width="1.51"/><path d="M1955 584l-157 134 187-74z" fill="#358c4f" stroke="#358c4f" stroke-width="1.51"/><path d="M1798 718l-9 128 186-30z" fill="#228547" stroke="#228547" stroke-width="1.51"/><path d="M1764 48l41 212 170-165z" fill="#78aa6a" stroke="#78aa6a" stroke-width="1.51"/><path d="M1739 1087l62 208 126-206z" fill="#026938" stroke="#026938" stroke-width="1.51"/><path d="M1830-114l-66 162 179-117z" fill="#85b073" stroke="#85b073" stroke-width="1.51"/><path d="M1824 395l-92 188 223 1z" fill="#489858" stroke="#489858" stroke-width="1.51"/><path d="M1732 583l66 135 157-134z" fill="#3a9252" stroke="#3a9252" stroke-width="1.51"/><path d="M1805 260l19 135 120-34z" fill="#61a060" stroke="#61a060" stroke-width="1.51"/><path d="M1826 1014l-87 73 188 2z" fill="#0c703a" stroke="#0c703a" stroke-width="1.51"/><path d="M1148 1279l-212 54 515-10z" fill="#2b7e48" stroke="#2b7e48" stroke-width="1.51"/><path d="M1739 1087l-70 108 132 100z" fill="#086a38" stroke="#086a38" stroke-width="1.51"/><path d="M1764 48l-106 199 147 13z" fill="#76ae6b" stroke="#76ae6b" stroke-width="1.51"/><path d="M1805 260l-160 118 179 17z" fill="#63a563" stroke="#63a563" stroke-width="1.51"/><path d="M1645 378l87 205 92-188z" fill="#56a15e" stroke="#56a15e" stroke-width="1.51"/><path d="M1789 846l-114 115 151 53z" fill="#1b7b3f" stroke="#1b7b3f" stroke-width="1.51"/><path d="M1608-55l156 103 66-162z" fill="#89b676" stroke="#89b676" stroke-width="1.51"/><path d="M1744-180L1608-55l222-59z" fill="#8db77b" stroke="#8db77b" stroke-width="1.51"/><path d="M1675 961l64 126 87-73z" fill="#15763e" stroke="#15763e" stroke-width="1.51"/><path d="M1658 247l-13 131 160-118z" fill="#6bab66" stroke="#6bab66" stroke-width="1.51"/><path d="M1608-55l48 97 108 6z" fill="#87b774" stroke="#87b774" stroke-width="1.51"/><path d="M1656 42l2 205 106-199z" fill="#7fb36f" stroke="#7fb36f" stroke-width="1.51"/><path d="M1732 583l-109 125 175 10z" fill="#389452" stroke="#389452" stroke-width="1.51"/><path d="M1638 827l151 19 9-128z" fill="#278a49" stroke="#278a49" stroke-width="1.51"/><path d="M1623 708l15 119 160-109z" fill="#2c914d" stroke="#2c914d" stroke-width="1.51"/><path d="M1669 1195l-48 114 180-14z" fill="#0b6636" stroke="#0b6636" stroke-width="1.51"/><path d="M1638 827l37 134 114-115z" fill="#228444" stroke="#228444" stroke-width="1.51"/><path d="M1645 378l-37 212 124-7z" fill="#4fa15c" stroke="#4fa15c" stroke-width="1.51"/><path d="M1686-206l-78 151 136-125z" fill="#8fba80" stroke="#8fba80" stroke-width="1.51"/><path d="M1608 590l15 118 109-125z" fill="#409a55" stroke="#409a55" stroke-width="1.51"/><path d="M1675 961l-6 234 70-108z" fill="#13743c" stroke="#13743c" stroke-width="1.51"/><path d="M1473 1015l196 180 6-234z" fill="#1a7b3f" stroke="#1a7b3f" stroke-width="1.51"/><path d="M1512 489l96 101 37-212z" fill="#56a65f" stroke="#56a65f" stroke-width="1.51"/><path d="M1656 42l-154 182 156 23z" fill="#7db56e" stroke="#7db56e" stroke-width="1.51"/><path d="M1473 1015l-26 94 222 86z" fill="#1a7b40" stroke="#1a7b40" stroke-width="1.51"/><path d="M1526-202l82 147 78-151z" fill="#92be82" stroke="#92be82" stroke-width="1.51"/><path d="M1455 58l47 166 154-182z" fill="#86bb73" stroke="#86bb73" stroke-width="1.51"/><path d="M1502 224l143 154 13-131z" fill="#71b069" stroke="#71b069" stroke-width="1.51"/><path d="M1638 827l-165 188 202-54z" fill="#238443" stroke="#238443" stroke-width="1.51"/><path d="M1447 1109l174 200 48-114z" fill="#12713b" stroke="#12713b" stroke-width="1.51"/><path d="M1447 1109l4 214 170-14z" fill="#16723c" stroke="#16723c" stroke-width="1.51"/><path d="M1440 800l33 215 165-188z" fill="#2b8d49" stroke="#2b8d49" stroke-width="1.51"/><path d="M1608 590l-74 78 89 40z" fill="#3f9c55" stroke="#3f9c55" stroke-width="1.51"/><path d="M1608-55L1455 58l201-16z" fill="#8bbc76" stroke="#8bbc76" stroke-width="1.51"/><path d="M1534 668l-94 132 183-92z" fill="#379b52" stroke="#379b52" stroke-width="1.51"/><path d="M1623 708l-183 92 198 27z" fill="#2f944e" stroke="#2f944e" stroke-width="1.51"/><path d="M1446 401l66 88 133-111z" fill="#62ac64" stroke="#62ac64" stroke-width="1.51"/><path d="M1502 224l-56 177 199-23z" fill="#6eb268" stroke="#6eb268" stroke-width="1.51"/><path d="M1526-202l-63 147h145z" fill="#94c17f" stroke="#94c17f" stroke-width="1.51"/><path d="M1463-55l-8 113 153-113z" fill="#90c17b" stroke="#90c17b" stroke-width="1.51"/><path d="M1512 489l22 179 74-78z" fill="#4ba25b" stroke="#4ba25b" stroke-width="1.51"/><path d="M31-262l301 14 65-6z" fill="#f1fac5" stroke="#f1fac5" stroke-width="1.51"/><path d="M1447 1109l-96 153 100 61z" fill="#1c7840" stroke="#1c7840" stroke-width="1.51"/><path d="M1440 800l-72 93 105 122z" fill="#2e914b" stroke="#2e914b" stroke-width="1.51"/><path d="M1360-92l103 37 63-147z" fill="#99c785" stroke="#99c785" stroke-width="1.51"/><path d="M1300 699l140 101 94-132z" fill="#3da157" stroke="#3da157" stroke-width="1.51"/><path d="M1512 489l-227 36 249 143z" fill="#53ab61" stroke="#53ab61" stroke-width="1.51"/><path d="M1285 525l15 174 234-31z" fill="#4cab60" stroke="#4cab60" stroke-width="1.51"/><path d="M1351 1262l-203 17 303 44z" fill="#207942" stroke="#207942" stroke-width="1.51"/><path d="M1324-175l36 83 166-110z" fill="#9cca8b" stroke="#9cca8b" stroke-width="1.51"/><path d="M1297 345l149 56 56-177z" fill="#74ba6e" stroke="#74ba6e" stroke-width="1.51"/><path d="M1455 58h-108l155 166z" fill="#8ac278" stroke="#8ac278" stroke-width="1.51"/><path d="M1347 58l-58 147 213 19z" fill="#88c477" stroke="#88c477" stroke-width="1.51"/><path d="M1446 401l-161 124 227-36z" fill="#61b267" stroke="#61b267" stroke-width="1.51"/><path d="M1289 205l8 140 205-121z" fill="#7ec074" stroke="#7ec074" stroke-width="1.51"/><path d="M1378 1095l-27 167 96-153z" fill="#1e8144" stroke="#1e8144" stroke-width="1.51"/><path d="M1347 58h108l8-113z" fill="#92c67d" stroke="#92c67d" stroke-width="1.51"/><path d="M1360-92l-13 150 116-113z" fill="#97c982" stroke="#97c982" stroke-width="1.51"/><path d="M1315 1033l63 62 95-80z" fill="#258847" stroke="#258847" stroke-width="1.51"/><path d="M1368 893l-53 140 158-18z" fill="#2a8d49" stroke="#2a8d49" stroke-width="1.51"/><path d="M1378 1095l69 14 26-94z" fill="#228345" stroke="#228345" stroke-width="1.51"/><path d="M1297 345l-12 180 161-124z" fill="#6ab96d" stroke="#6ab96d" stroke-width="1.51"/><path d="M1300 699l68 194 72-93z" fill="#389f54" stroke="#389f54" stroke-width="1.51"/><path d="M1285 525l-53 35 68 139z" fill="#56b466" stroke="#56b466" stroke-width="1.51"/><path d="M1220-11l127 69 13-150z" fill="#9acf84" stroke="#9acf84" stroke-width="1.51"/><path d="M1300 699l-87 160 155 34z" fill="#3ba257" stroke="#3ba257" stroke-width="1.51"/><path d="M1197 939l118 94 53-140z" fill="#31954e" stroke="#31954e" stroke-width="1.51"/><path d="M1235 1173l116 89 27-167z" fill="#228347" stroke="#228347" stroke-width="1.51"/><path d="M1315 1033l-80 140 143-78z" fill="#268a49" stroke="#268a49" stroke-width="1.51"/><path d="M1213 859l-16 80 171-46z" fill="#369c53" stroke="#369c53" stroke-width="1.51"/><path d="M1324-175L1220-11l140-81z" fill="#a0d189" stroke="#a0d189" stroke-width="1.51"/><path d="M1159 442l126 83 12-180z" fill="#6ebf70" stroke="#6ebf70" stroke-width="1.51"/><path d="M1148 110l141 95 58-147z" fill="#92ce7f" stroke="#92ce7f" stroke-width="1.51"/><path d="M1220-11l-72 121 199-52z" fill="#99d184" stroke="#99d184" stroke-width="1.51"/><path d="M1235 1173l-87 106 203-17z" fill="#258247" stroke="#258247" stroke-width="1.51"/><path d="M1289 205l-123 28 131 112z" fill="#84c879" stroke="#84c879" stroke-width="1.51"/><path d="M1158-201l62 190 104-164z" fill="#a4d590" stroke="#a4d590" stroke-width="1.51"/><path d="M1137 687l76 172 87-160z" fill="#46ad5f" stroke="#46ad5f" stroke-width="1.51"/><path d="M1197 939l38 234 80-140z" fill="#2d914d" stroke="#2d914d" stroke-width="1.51"/><path d="M1148 110l18 123 123-28z" fill="#90ce7f" stroke="#90ce7f" stroke-width="1.51"/><path d="M1232 560l-95 127 163 12z" fill="#53b365" stroke="#53b365" stroke-width="1.51"/><path d="M1197 939l-116 33 154 201z" fill="#389652" stroke="#389652" stroke-width="1.51"/><path d="M1166 233l-7 209 138-97z" fill="#7ec677" stroke="#7ec677" stroke-width="1.51"/><path d="M1159 442l73 118 53-35z" fill="#65bb6e" stroke="#65bb6e" stroke-width="1.51"/><path d="M588 1295l-115 40 463-2z" fill="#5b915b" stroke="#5b915b" stroke-width="1.51"/><path d="M1088 736l1 53 48-102z" fill="#52b264" stroke="#52b264" stroke-width="1.51"/><path d="M1137 687l-48 102 124 70z" fill="#4aad60" stroke="#4aad60" stroke-width="1.51"/><path d="M1158-201L1024-85l196 74z" fill="#acd992" stroke="#acd992" stroke-width="1.51"/><path d="M1021 1100l127 179 87-106z" fill="#338c4e" stroke="#338c4e" stroke-width="1.51"/><path d="M1081 972l-60 128 214 73z" fill="#3b9452" stroke="#3b9452" stroke-width="1.51"/><path d="M1159 442l-145 109 218 9z" fill="#6cbf72" stroke="#6cbf72" stroke-width="1.51"/><path d="M1014 551l123 136 95-127z" fill="#62ba6d" stroke="#62ba6d" stroke-width="1.51"/><path d="M1040 1260l-104 73 212-54z" fill="#39864e" stroke="#39864e" stroke-width="1.51"/><path d="M1021 1100l19 160 108 19z" fill="#398c50" stroke="#398c50" stroke-width="1.51"/><path d="M987 358l172 84 7-209z" fill="#86cb7c" stroke="#86cb7c" stroke-width="1.51"/><path d="M1024-85l124 195 72-121z" fill="#a5d78c" stroke="#a5d78c" stroke-width="1.51"/><path d="M1024-85l-24 148 148 47z" fill="#a9da8e" stroke="#a9da8e" stroke-width="1.51"/><path d="M1089 789l-8 183 116-33z" fill="#45a259" stroke="#45a259" stroke-width="1.51"/><path d="M1089 789l108 150 16-80z" fill="#43a45a" stroke="#43a45a" stroke-width="1.51"/><path d="M1009 249l-22 109 179-125z" fill="#92d081" stroke="#92d081" stroke-width="1.51"/><path d="M694-239l241 36 86-34z" fill="#c2e5ab" stroke="#c2e5ab" stroke-width="1.51"/><path d="M1021-237l3 152 134-116z" fill="#b3dd9d" stroke="#b3dd9d" stroke-width="1.51"/><path d="M1148 110l-139 139 157-16z" fill="#96d283" stroke="#96d283" stroke-width="1.51"/><path d="M987 358l27 193 145-109z" fill="#7cc779" stroke="#7cc779" stroke-width="1.51"/><path d="M1000 63l9 186 139-139z" fill="#a1d789" stroke="#a1d789" stroke-width="1.51"/><path d="M1014 551l74 185 49-49z" fill="#5fb96b" stroke="#5fb96b" stroke-width="1.51"/><path d="M765 1271l-177 24 348 38z" fill="#539058" stroke="#539058" stroke-width="1.51"/><path d="M987 358l-57 27 84 166z" fill="#85cb7d" stroke="#85cb7d" stroke-width="1.51"/><path d="M930 385l-25 105 109 61z" fill="#82ca7d" stroke="#82ca7d" stroke-width="1.51"/><path d="M929 989l92 111 60-128z" fill="#489d59" stroke="#489d59" stroke-width="1.51"/><path d="M912 788l17 201 152-17z" fill="#51a85f" stroke="#51a85f" stroke-width="1.51"/><path d="M1014 551l-152 97 226 88z" fill="#69bd70" stroke="#69bd70" stroke-width="1.51"/><path d="M862 648l50 140 176-52z" fill="#62ba6c" stroke="#62ba6c" stroke-width="1.51"/><path d="M1088 736l-176 52 177 1z" fill="#56b366" stroke="#56b366" stroke-width="1.51"/><path d="M912 788l169 184 8-183z" fill="#51ab61" stroke="#51ab61" stroke-width="1.51"/><path d="M1000 63L893 88l116 161z" fill="#a9da8d" stroke="#a9da8d" stroke-width="1.51"/><path d="M880-66l120 129 24-148z" fill="#b5df96" stroke="#b5df96" stroke-width="1.51"/><path d="M1021-237l-86 34 89 118z" fill="#b8e0a1" stroke="#b8e0a1" stroke-width="1.51"/><path d="M1021 1100l-180 8 199 152z" fill="#449556" stroke="#449556" stroke-width="1.51"/><path d="M841 1108l95 225 104-73z" fill="#459055" stroke="#459055" stroke-width="1.51"/><path d="M900 292l87 66 22-109z" fill="#96d384" stroke="#96d384" stroke-width="1.51"/><path d="M893 88l7 204 109-43z" fill="#a3d88b" stroke="#a3d88b" stroke-width="1.51"/><path d="M935-203L880-66l144-19z" fill="#bbe29d" stroke="#bbe29d" stroke-width="1.51"/><path d="M929 989l-88 119 180-8z" fill="#4d9d5b" stroke="#4d9d5b" stroke-width="1.51"/><path d="M880-66l13 154 107-25z" fill="#b4e094" stroke="#b4e094" stroke-width="1.51"/><path d="M905 490l-43 158 152-97z" fill="#78c678" stroke="#78c678" stroke-width="1.51"/><path d="M841 1108l-76 163 171 62z" fill="#4d9358" stroke="#4d9358" stroke-width="1.51"/><path d="M900 292l30 93 57-27z" fill="#93d283" stroke="#93d283" stroke-width="1.51"/><path d="M893 88L687 208l213 84z" fill="#addd8f" stroke="#addd8f" stroke-width="1.51"/><path d="M912 788l-223 53 240 148z" fill="#61b166" stroke="#61b166" stroke-width="1.51"/><path d="M689 841l56 202 184-54z" fill="#60aa63" stroke="#60aa63" stroke-width="1.51"/><path d="M761-90l119 24 55-137z" fill="#c2e6a1" stroke="#c2e6a1" stroke-width="1.51"/><path d="M753 569l109 79 43-158z" fill="#80c97b" stroke="#80c97b" stroke-width="1.51"/><path d="M694-239l67 149 174-113z" fill="#c9e8a9" stroke="#c9e8a9" stroke-width="1.51"/><path d="M745 1043l96 65 88-119z" fill="#57a25e" stroke="#57a25e" stroke-width="1.51"/><path d="M713 392l192 98 25-105z" fill="#92d183" stroke="#92d183" stroke-width="1.51"/><path d="M900 292L713 392l217-7z" fill="#9ad586" stroke="#9ad586" stroke-width="1.51"/><path d="M880-66L761-90 893 88z" fill="#bfe49a" stroke="#bfe49a" stroke-width="1.51"/><path d="M692 94l-5 114L893 88z" fill="#bae395" stroke="#bae395" stroke-width="1.51"/><path d="M862 648l-112 44 162 96z" fill="#6fc071" stroke="#6fc071" stroke-width="1.51"/><path d="M750 692l-61 149 223-53z" fill="#6dbd6f" stroke="#6dbd6f" stroke-width="1.51"/><path d="M761-90L692 94l201-6z" fill="#c0e599" stroke="#c0e599" stroke-width="1.51"/><path d="M713 392l40 177 152-79z" fill="#8fd082" stroke="#8fd082" stroke-width="1.51"/><path d="M687 208l26 184 187-100z" fill="#a8db8c" stroke="#a8db8c" stroke-width="1.51"/><path d="M709 1118l56 153 76-163z" fill="#579c5d" stroke="#579c5d" stroke-width="1.51"/><path d="M753 569l-3 123 112-44z" fill="#7cc678" stroke="#7cc678" stroke-width="1.51"/><path d="M745 1043l-36 75 132-10z" fill="#5ba260" stroke="#5ba260" stroke-width="1.51"/><path d="M632 1113l-44 182 121-177z" fill="#62a061" stroke="#62a061" stroke-width="1.51"/><path d="M689 841l-69 154 125 48z" fill="#6aae66" stroke="#6aae66" stroke-width="1.51"/><path d="M572 537l34 207 144-52z" fill="#87cb7c" stroke="#87cb7c" stroke-width="1.51"/><path d="M606 744l83 97 61-149z" fill="#78c273" stroke="#78c273" stroke-width="1.51"/><path d="M713 392l-81 31 121 146z" fill="#9ad586" stroke="#9ad586" stroke-width="1.51"/><path d="M572 537l178 155 3-123z" fill="#89cd7e" stroke="#89cd7e" stroke-width="1.51"/><path d="M632 423l-60 114 181 32z" fill="#97d385" stroke="#97d385" stroke-width="1.51"/><path d="M618 85l74 9 69-184z" fill="#c8e99c" stroke="#c8e99c" stroke-width="1.51"/><path d="M559-67l59 152L761-90z" fill="#cfeca1" stroke="#cfeca1" stroke-width="1.51"/><path d="M694-239l-123 76 190 73z" fill="#d3edac" stroke="#d3edac" stroke-width="1.51"/><path d="M709 1118l-121 177 177-24z" fill="#5c995d" stroke="#5c995d" stroke-width="1.51"/><path d="M571-163l-12 96 202-23z" fill="#d5eea7" stroke="#d5eea7" stroke-width="1.51"/><path d="M687 208l-106 22 132 162z" fill="#b3e091" stroke="#b3e091" stroke-width="1.51"/><path d="M632 1113l77 5 36-75z" fill="#62a462" stroke="#62a462" stroke-width="1.51"/><path d="M620 995l12 118 113-70z" fill="#67a964" stroke="#67a964" stroke-width="1.51"/><path d="M554 868l66 127 69-154z" fill="#73b66c" stroke="#73b66c" stroke-width="1.51"/><path d="M618 85l69 123 5-114z" fill="#c3e798" stroke="#c3e798" stroke-width="1.51"/><path d="M397-254l174 91 123-76z" fill="#ddf1b6" stroke="#ddf1b6" stroke-width="1.51"/><path d="M581 230l51 193 81-31z" fill="#addd8d" stroke="#addd8d" stroke-width="1.51"/><path d="M618 85l-37 145 106-22z" fill="#c1e697" stroke="#c1e697" stroke-width="1.51"/><path d="M606 744l-52 124 135-27z" fill="#79be72" stroke="#79be72" stroke-width="1.51"/><path d="M279 1248H82l391 87z" fill="#77a169" stroke="#77a169" stroke-width="1.51"/><path d="M82 1248l-143 51 534 36z" fill="#7ca16c" stroke="#7ca16c" stroke-width="1.51"/><path d="M572 537l-175 99 209 108z" fill="#92d081" stroke="#92d081" stroke-width="1.51"/><path d="M473 54l108 176 37-145z" fill="#cbea9c" stroke="#cbea9c" stroke-width="1.51"/><path d="M559-67L473 54l145 31z" fill="#d3eda2" stroke="#d3eda2" stroke-width="1.51"/><path d="M581 230L457 357l175 66z" fill="#b4e191" stroke="#b4e191" stroke-width="1.51"/><path d="M457 357l115 180 60-114z" fill="#a8db8c" stroke="#a8db8c" stroke-width="1.51"/><path d="M620 995l-157 156 169-38z" fill="#6ca966" stroke="#6ca966" stroke-width="1.51"/><path d="M463 1151l125 144 44-182z" fill="#68a163" stroke="#68a163" stroke-width="1.51"/><path d="M460 263l-3 94 124-127z" fill="#bfe596" stroke="#bfe596" stroke-width="1.51"/><path d="M554 868l-175 159 241-32z" fill="#77b46c" stroke="#77b46c" stroke-width="1.51"/><path d="M379 1027l84 124 157-156z" fill="#74ae6a" stroke="#74ae6a" stroke-width="1.51"/><path d="M473 54l-13 209 121-33z" fill="#c9e99b" stroke="#c9e99b" stroke-width="1.51"/><path d="M399 825l155 43 52-124z" fill="#81c276" stroke="#81c276" stroke-width="1.51"/><path d="M397 636l2 189 207-81z" fill="#8bcb7c" stroke="#8bcb7c" stroke-width="1.51"/><path d="M457 357l-54 208 169-28z" fill="#a8db8c" stroke="#a8db8c" stroke-width="1.51"/><path d="M403 565l-6 71 175-99z" fill="#9ed688" stroke="#9ed688" stroke-width="1.51"/><path d="M463 1151l10 184 115-40z" fill="#689c62" stroke="#689c62" stroke-width="1.51"/><path d="M430-75l129 8 12-96z" fill="#ddf1ab" stroke="#ddf1ab" stroke-width="1.51"/><path d="M399 825l-20 202 175-159z" fill="#80bc72" stroke="#80bc72" stroke-width="1.51"/><path d="M430-75l43 129 86-121z" fill="#dbf1a7" stroke="#dbf1a7" stroke-width="1.51"/><path d="M397-254l33 179 141-88z" fill="#e3f3b3" stroke="#e3f3b3" stroke-width="1.51"/><path d="M31-262l58 30 243-16z" fill="#f6fbc8" stroke="#f6fbc8" stroke-width="1.51"/><path d="M397 636l-107 72 109 117z" fill="#95cf81" stroke="#95cf81" stroke-width="1.51"/><path d="M294 403l109 162 54-208z" fill="#b4e092" stroke="#b4e092" stroke-width="1.51"/><path d="M463 1151l-184 97 194 87z" fill="#71a066" stroke="#71a066" stroke-width="1.51"/><path d="M282 90l48 114L473 54z" fill="#daf1a3" stroke="#daf1a3" stroke-width="1.51"/><path d="M430-75L300-65 473 54z" fill="#e2f3aa" stroke="#e2f3aa" stroke-width="1.51"/><path d="M300-65L282 90l191-36z" fill="#e1f3a9" stroke="#e1f3a9" stroke-width="1.51"/><path d="M330 204l130 59 13-209z" fill="#d0ec9f" stroke="#d0ec9f" stroke-width="1.51"/><path d="M290 847l89 180 20-202z" fill="#87bf75" stroke="#87bf75" stroke-width="1.51"/><path d="M397-254l-65 6 98 173z" fill="#e9f6b9" stroke="#e9f6b9" stroke-width="1.51"/><path d="M330 204l-36 199 163-46z" fill="#c5e799" stroke="#c5e799" stroke-width="1.51"/><path d="M330 204l127 153 3-94z" fill="#c6e799" stroke="#c6e799" stroke-width="1.51"/><path d="M379 1027l-121 74 205 50z" fill="#7baf6d" stroke="#7baf6d" stroke-width="1.51"/><path d="M258 1101l21 147 184-97z" fill="#79aa6b" stroke="#79aa6b" stroke-width="1.51"/><path d="M290 847l3 159 86 21z" fill="#85ba73" stroke="#85ba73" stroke-width="1.51"/><path d="M332-248L300-65l130-10z" fill="#eaf7b3" stroke="#eaf7b3" stroke-width="1.51"/><path d="M294 403l-31 84 140 78z" fill="#b3df92" stroke="#b3df92" stroke-width="1.51"/><path d="M263 487l27 221 107-72z" fill="#a4d88a" stroke="#a4d88a" stroke-width="1.51"/><path d="M290 708v139l109-22z" fill="#90ca7d" stroke="#90ca7d" stroke-width="1.51"/><path d="M263 487l134 149 6-71z" fill="#a7da8c" stroke="#a7da8c" stroke-width="1.51"/><path d="M293 1006l-35 95 121-74z" fill="#81b370" stroke="#81b370" stroke-width="1.51"/><path d="M263 487l-91 212 118 9z" fill="#a5d88b" stroke="#a5d88b" stroke-width="1.51"/><path d="M290 847L190 975l103 31z" fill="#89bc75" stroke="#89bc75" stroke-width="1.51"/><path d="M89-232l4 159 207 8z" fill="#f3fbba" stroke="#f3fbba" stroke-width="1.51"/><path d="M282 90l-116 31 164 83z" fill="#ddf2a6" stroke="#ddf2a6" stroke-width="1.51"/><path d="M139 287l155 116 36-199z" fill="#cdea9e" stroke="#cdea9e" stroke-width="1.51"/><path d="M89-232L300-65l32-183z" fill="#f0f9bd" stroke="#f0f9bd" stroke-width="1.51"/><path d="M166 121l-27 166 191-83z" fill="#d9f0a4" stroke="#d9f0a4" stroke-width="1.51"/><path d="M108 489l64 210 91-212z" fill="#b1de93" stroke="#b1de93" stroke-width="1.51"/><path d="M136 868l54 107 100-128z" fill="#8fc27a" stroke="#8fc27a" stroke-width="1.51"/><path d="M290 708l-118-9 118 148z" fill="#97cf83" stroke="#97cf83" stroke-width="1.51"/><path d="M172 699l-36 169 154-21z" fill="#96cb81" stroke="#96cb81" stroke-width="1.51"/><path d="M166 121l116-31 18-155z" fill="#e4f5ab" stroke="#e4f5ab" stroke-width="1.51"/><path d="M93-73l73 194L300-65z" fill="#ebf8b0" stroke="#ebf8b0" stroke-width="1.51"/><path d="M258 1101l-163 41 184 106z" fill="#7fad70" stroke="#7fad70" stroke-width="1.51"/><path d="M190 975l68 126 35-95z" fill="#85b673" stroke="#85b673" stroke-width="1.51"/><path d="M86 411l177 76 31-84z" fill="#bee499" stroke="#bee499" stroke-width="1.51"/><path d="M139 287L86 411l208-8z" fill="#c9e99e" stroke="#c9e99e" stroke-width="1.51"/><path d="M86 411l22 78 155-2z" fill="#bee499" stroke="#bee499" stroke-width="1.51"/><path d="M95 1142l-13 106h197z" fill="#80a96f" stroke="#80a96f" stroke-width="1.51"/><path d="M190 975l-95 167 163-41z" fill="#86b473" stroke="#86b473" stroke-width="1.51"/><path d="M-7 133l146 154 27-166z" fill="#e1f3aa" stroke="#e1f3aa" stroke-width="1.51"/><path d="M93-73L-7 133l173-12z" fill="#ecf8b0" stroke="#ecf8b0" stroke-width="1.51"/><path d="M108 489L-30 693l202 6z" fill="#aedb91" stroke="#aedb91" stroke-width="1.51"/><path d="M22 872l114-4 36-169z" fill="#9acc83" stroke="#9acc83" stroke-width="1.51"/><path d="M-71 1039l166 103 95-167z" fill="#8cb878" stroke="#8cb878" stroke-width="1.51"/><path d="M22 872l-93 167 261-64z" fill="#92bf7c" stroke="#92bf7c" stroke-width="1.51"/><path d="M136 868l-114 4 168 103z" fill="#93c37d" stroke="#93c37d" stroke-width="1.51"/><path d="M-7 133l23 160 123-6z" fill="#ddf1a9" stroke="#ddf1a9" stroke-width="1.51"/><path d="M-30 693l52 179 150-173z" fill="#a1d38a" stroke="#a1d38a" stroke-width="1.51"/><path d="M-71 1039l18 59 148 44z" fill="#8bb67c" stroke="#8bb67c" stroke-width="1.51"/><path d="M-38 493l8 200 138-204z" fill="#b8e09a" stroke="#b8e09a" stroke-width="1.51"/><path d="M9 362l77 49 53-124z" fill="#cfeba2" stroke="#cfeba2" stroke-width="1.51"/><path d="M16 293l-7 69 130-75z" fill="#d4eea5" stroke="#d4eea5" stroke-width="1.51"/><path d="M31-262l-76 147L89-232z" fill="#fafdc9" stroke="#fafdc9" stroke-width="1.51"/><path d="M89-232L-45-115 93-73z" fill="#f9fdc1" stroke="#f9fdc1" stroke-width="1.51"/><path d="M-45-115l38 248L93-73z" fill="#f3fbba" stroke="#f3fbba" stroke-width="1.51"/><path d="M86 411l-124 82 146-4z" fill="#c2e59d" stroke="#c2e59d" stroke-width="1.51"/><path d="M-53 1098l135 150 13-106z" fill="#87b076" stroke="#87b076" stroke-width="1.51"/><path d="M-53 1098l-8 201 143-51z" fill="#85ab77" stroke="#85ab77" stroke-width="1.51"/><path d="M9 362l-47 131 124-82z" fill="#c8e8a2" stroke="#c8e8a2" stroke-width="1.51"/><path d="M-45-115L-161-11-7 133z" fill="#f3fabe" stroke="#f3fabe" stroke-width="1.51"/><path d="M-38 493l-73 146 81 54z" fill="#b3dd9d" stroke="#b3dd9d" stroke-width="1.51"/><path d="M-161-11l26 144H-7z" fill="#eef8bc" stroke="#eef8bc" stroke-width="1.51"/><path d="M-7 133l-154 127 177 33z" fill="#dff2b1" stroke="#dff2b1" stroke-width="1.51"/><path d="M-30 693l-86 102 138 77z" fill="#a0d08e" stroke="#a0d08e" stroke-width="1.51"/><path d="M-124-175l79 60 76-147z" fill="#fbfdcd" stroke="#fbfdcd" stroke-width="1.51"/><path d="M-135 133l-26 127L-7 133z" fill="#e6f5b7" stroke="#e6f5b7" stroke-width="1.51"/><path d="M-116 795l45 244 93-167z" fill="#97c587" stroke="#97c587" stroke-width="1.51"/><path d="M-173 417l135 76L9 362z" fill="#c9e8a8" stroke="#c9e8a8" stroke-width="1.51"/><path d="M-161 260L9 362l7-69z" fill="#d7efad" stroke="#d7efad" stroke-width="1.51"/><path d="M-204 1164l143 135 8-201z" fill="#88ae7f" stroke="#88ae7f" stroke-width="1.51"/><path d="M-161 260l-12 157L9 362z" fill="#d3edaf" stroke="#d3edaf" stroke-width="1.51"/><path d="M-116 795l-76 232 121 12z" fill="#95c089" stroke="#95c089" stroke-width="1.51"/><path d="M-172 569l61 70 73-146z" fill="#b8e0a3" stroke="#b8e0a3" stroke-width="1.51"/><path d="M-204 1164l6 103 137 32z" fill="#85a980" stroke="#85a980" stroke-width="1.51"/><path d="M-111 639l-5 156 86-102z" fill="#a8d797" stroke="#a8d797" stroke-width="1.51"/><path d="M-173 417l1 152 134-76z" fill="#c1e5a9" stroke="#c1e5a9" stroke-width="1.51"/><path d="M-124-175l-37 164 116-104z" fill="#fafdc8" stroke="#fafdc8" stroke-width="1.51"/><path d="M-71 1039l-121-12 139 71z" fill="#8fb984" stroke="#8fb984" stroke-width="1.51"/><path d="M-192 1027l-12 137 151-66z" fill="#8db686" stroke="#8db686" stroke-width="1.51"/><path d="M-172 569l56 226 5-156z" fill="#adda9d" stroke="#adda9d" stroke-width="1.51"/><path d="M-172 569l-20 458 76-232z" fill="#a1d096" stroke="#a1d096" stroke-width="1.51"/><path d="M-161-11v271l26-127z" fill="#ebf7bd" stroke="#ebf7bd" stroke-width="1.51"/><path d="M-173 417l12-157V-11z" fill="#e1f3b9" stroke="#e1f3b9" stroke-width="1.51"/><path d="M-173 417l-19 610 20-458z" fill="#aedaa0" stroke="#aedaa0" stroke-width="1.51"/><path d="M-204 1164l12-137 19-610z" fill="#9cc993" stroke="#9cc993" stroke-width="1.51"/></svg>