<svg xmlns="http://www.w3.org/2000/svg" width="1920" height="1080"><path d="M397,-254L694,-239L1021,-237Z" fill="#d2ecb3" stroke="#d2ecb3" stroke-width="1.51"/><path d="M1021,-237L1158,-201L1526,-202Z" fill="#a6d699" stroke="#a6d699" stroke-width="1.51"/><path d="M1021,-237L1526,-202L1686,-206Z" fill="#9dcb91" stroke="#9dcb91" stroke-width="1.51"/><path d="M1621,1309L1451,1323L1934,1312Z" fill="#0c6335" stroke="#0c6335" stroke-width="1.51"/><path d="M1801,1295L1621,1309L1934,1312Z" fill="#055f33" stroke="#055f33" stroke-width="1.51"/><path d="M1686,-206L1744,-180L1977,-191Z" fill="#8bb481" stroke="#8bb481" stroke-width="1.51"/><path d="M2043,638L1975,816L2053,865Z" fill="#217c44" stroke="#217c44" stroke-width="1.51"/><path d="M2036,1043L2051,1106L2053,865Z" fill="#0e6737" stroke="#0e6737" stroke-width="1.51"/><path d="M1975,95L1972,223L2076,254Z" fill="#6d9d64" stroke="#6d9d64" stroke-width="1.51"/><path d="M2051,1106L2040,1289L2108,431Z" fill="#136a38" stroke="#136a38" stroke-width="1.51"/><path d="M2053,865L2051,1106L2108,431Z" fill="#1e7741" stroke="#1e7741" stroke-width="1.51"/><path d="M2065,518L2043,638L2108,431Z" fill="#428952" stroke="#428952" stroke-width="1.51"/><path d="M2043,638L2053,865L2108,431Z" fill="#33824b" stroke="#33824b" stroke-width="1.51"/><path d="M2076,254L1944,361L2108,431Z" fill="#5b945b" stroke="#5b945b" stroke-width="1.51"/><path d="M2079,-174L1943,-69L2117,-12Z" fill="#81a470" stroke="#81a470" stroke-width="1.51"/><path d="M2117,-12L1975,95L2126,65Z" fill="#779f69" stroke="#779f69" stroke-width="1.51"/><path d="M1975,95L2076,254L2126,65Z" fill="#719d65" stroke="#719d65" stroke-width="1.51"/><path d="M2076,254L2108,431L2126,65Z" fill="#64955e" stroke="#64955e" stroke-width="1.51"/><path d="M1985,644L1975,816L2043,638Z" fill="#2b8349" stroke="#2b8349" stroke-width="1.51"/><path d="M1987,1032L2036,1043L2053,865Z" fill="#106a38" stroke="#106a38" stroke-width="1.51"/><path d="M1943,-69L1975,95L2117,-12Z" fill="#7ca46d" stroke="#7ca46d" stroke-width="1.51"/><path d="M1944,361L2065,518L2108,431Z" fill="#4f9057" stroke="#4f9057" stroke-width="1.51"/><path d="M1927,1089L1934,1312L2040,1289Z" fill="#005b32" stroke="#005b32" stroke-width="1.51"/><path d="M1927,1089L2040,1289L2051,1106Z" fill="#005f33" stroke="#005f33" stroke-width="1.51"/><path d="M1955,584L2043,638L2065,518Z" fill="#3c8950" stroke="#3c8950" stroke-width="1.51"/><path d="M1972,223L1944,361L2076,254Z" fill="#649b60" stroke="#649b60" stroke-width="1.51"/><path d="M1977,-191L1943,-69L2079,-174Z" fill="#84a777" stroke="#84a777" stroke-width="1.51"/><path d="M1975,816L1987,1032L2053,865Z" fill="#17713c" stroke="#17713c" stroke-width="1.51"/><path d="M1944,361L1955,584L2065,518Z" fill="#4a9156" stroke="#4a9156" stroke-width="1.51"/><path d="M1955,584L1985,644L2043,638Z" fill="#37884e" stroke="#37884e" stroke-width="1.51"/><path d="M2036,1043L1987,1032L2051,1106Z" fill="#096436" stroke="#096436" stroke-width="1.51"/><path d="M1987,1032L1927,1089L2051,1106Z" fill="#086636" stroke="#086636" stroke-width="1.51"/><path d="M1975,816L1826,1014L1987,1032Z" fill="#14723b" stroke="#14723b" stroke-width="1.51"/><path d="M1158,-201L1324,-175L1526,-202Z" fill="#a0d092" stroke="#a0d092" stroke-width="1.51"/><path d="M1927,1089L1801,1295L1934,1312Z" fill="#006034" stroke="#006034" stroke-width="1.51"/><path d="M1944,361L1824,395L1955,584Z" fill="#51975a" stroke="#51975a" stroke-width="1.51"/><path d="M1805,260L1944,361L1972,223Z" fill="#66a062" stroke="#66a062" stroke-width="1.51"/><path d="M1789,846L1826,1014L1975,816Z" fill="#1a7b40" stroke="#1a7b40" stroke-width="1.51"/><path d="M1943,-69L1764,48L1975,95Z" fill="#7eab6f" stroke="#7eab6f" stroke-width="1.51"/><path d="M1805,260L1972,223L1975,95Z" fill="#6fa366" stroke="#6fa366" stroke-width="1.51"/><path d="M1830,-114L1943,-69L1977,-191Z" fill="#86ad78" stroke="#86ad78" stroke-width="1.51"/><path d="M1798,718L1975,816L1985,644Z" fill="#288749" stroke="#288749" stroke-width="1.51"/><path d="M1826,1014L1927,1089L1987,1032Z" fill="#0b6c39" stroke="#0b6c39" stroke-width="1.51"/><path d="M1744,-180L1830,-114L1977,-191Z" fill="#89b17d" stroke="#89b17d" stroke-width="1.51"/><path d="M1955,584L1798,718L1985,644Z" fill="#358c4f" stroke="#358c4f" stroke-width="1.51"/><path d="M1798,718L1789,846L1975,816Z" fill="#228547" stroke="#228547" stroke-width="1.51"/><path d="M1764,48L1805,260L1975,95Z" fill="#78aa6a" stroke="#78aa6a" stroke-width="1.51"/><path d="M1739,1087L1801,1295L1927,1089Z" fill="#026938" stroke="#026938" stroke-width="1.51"/><path d="M1830,-114L1764,48L1943,-69Z" fill="#85b073" stroke="#85b073" stroke-width="1.51"/><path d="M1824,395L1732,583L1955,584Z" fill="#489858" stroke="#489858" stroke-width="1.51"/><path d="M1732,583L1798,718L1955,584Z" fill="#3a9252" stroke="#3a9252" stroke-width="1.51"/><path d="M1805,260L1824,395L1944,361Z" fill="#61a060" stroke="#61a060" stroke-width="1.51"/><path d="M1826,1014L1739,1087L1927,1089Z" fill="#0c703a" stroke="#0c703a" stroke-width="1.51"/><path d="M1148,1279L936,1333L1451,1323Z" fill="#2b7e48" stroke="#2b7e48" stroke-width="1.51"/><path d="M1739,1087L1669,1195L1801,1295Z" fill="#086a38" stroke="#086a38" stroke-width="1.51"/><path d="M1764,48L1658,247L1805,260Z" fill="#76ae6b" stroke="#76ae6b" stroke-width="1.51"/><path d="M1805,260L1645,378L1824,395Z" fill="#63a563" stroke="#63a563" stroke-width="1.51"/><path d="M1645,378L1732,583L1824,395Z" fill="#56a15e" stroke="#56a15e" stroke-width="1.51"/><path d="M1789,846L1675,961L1826,1014Z" fill="#1b7b3f" stroke="#1b7b3f" stroke-width="1.51"/><path d="M1608,-55L1764,48L1830,-114Z" fill="#89b676" stroke="#89b676" stroke-width="1.51"/><path d="M1744,-180L1608,-55L1830,-114Z" fill="#8db77b" stroke="#8db77b" stroke-width="1.51"/><path d="M1675,961L1739,1087L1826,1014Z" fill="#15763e" stroke="#15763e" stroke-width="1.51"/><path d="M1658,247L1645,378L1805,260Z" fill="#6bab66" stroke="#6bab66" stroke-width="1.51"/><path d="M1608,-55L1656,42L1764,48Z" fill="#87b774" stroke="#87b774" stroke-width="1.51"/><path d="M1656,42L1658,247L1764,48Z" fill="#7fb36f" stroke="#7fb36f" stroke-width="1.51"/><path d="M1732,583L1623,708L1798,718Z" fill="#389452" stroke="#389452" stroke-width="1.51"/><path d="M1638,827L1789,846L1798,718Z" fill="#278a49" stroke="#278a49" stroke-width="1.51"/><path d="M1623,708L1638,827L1798,718Z" fill="#2c914d" stroke="#2c914d" stroke-width="1.51"/><path d="M1669,1195L1621,1309L1801,1295Z" fill="#0b6636" stroke="#0b6636" stroke-width="1.51"/><path d="M1638,827L1675,961L1789,846Z" fill="#228444" stroke="#228444" stroke-width="1.51"/><path d="M1645,378L1608,590L1732,583Z" fill="#4fa15c" stroke="#4fa15c" stroke-width="1.51"/><path d="M1686,-206L1608,-55L1744,-180Z" fill="#8fba80" stroke="#8fba80" stroke-width="1.51"/><path d="M1608,590L1623,708L1732,583Z" fill="#409a55" stroke="#409a55" stroke-width="1.51"/><path d="M1675,961L1669,1195L1739,1087Z" fill="#13743c" stroke="#13743c" stroke-width="1.51"/><path d="M1473,1015L1669,1195L1675,961Z" fill="#1a7b3f" stroke="#1a7b3f" stroke-width="1.51"/><path d="M1512,489L1608,590L1645,378Z" fill="#56a65f" stroke="#56a65f" stroke-width="1.51"/><path d="M1656,42L1502,224L1658,247Z" fill="#7db56e" stroke="#7db56e" stroke-width="1.51"/><path d="M1473,1015L1447,1109L1669,1195Z" fill="#1a7b40" stroke="#1a7b40" stroke-width="1.51"/><path d="M1526,-202L1608,-55L1686,-206Z" fill="#92be82" stroke="#92be82" stroke-width="1.51"/><path d="M1455,58L1502,224L1656,42Z" fill="#86bb73" stroke="#86bb73" stroke-width="1.51"/><path d="M1502,224L1645,378L1658,247Z" fill="#71b069" stroke="#71b069" stroke-width="1.51"/><path d="M1638,827L1473,1015L1675,961Z" fill="#238443" stroke="#238443" stroke-width="1.51"/><path d="M1447,1109L1621,1309L1669,1195Z" fill="#12713b" stroke="#12713b" stroke-width="1.51"/><path d="M1447,1109L1451,1323L1621,1309Z" fill="#16723c" stroke="#16723c" stroke-width="1.51"/><path d="M1440,800L1473,1015L1638,827Z" fill="#2b8d49" stroke="#2b8d49" stroke-width="1.51"/><path d="M1608,590L1534,668L1623,708Z" fill="#3f9c55" stroke="#3f9c55" stroke-width="1.51"/><path d="M1608,-55L1455,58L1656,42Z" fill="#8bbc76" stroke="#8bbc76" stroke-width="1.51"/><path d="M1534,668L1440,800L1623,708Z" fill="#379b52" stroke="#379b52" stroke-width="1.51"/><path d="M1623,708L1440,800L1638,827Z" fill="#2f944e" stroke="#2f944e" stroke-width="1.51"/><path d="M1446,401L1512,489L1645,378Z" fill="#62ac64" stroke="#62ac64" stroke-width="1.51"/><path d="M1502,224L1446,401L1645,378Z" fill="#6eb268" stroke="#6eb268" stroke-width="1.51"/><path d="M1526,-202L1463,-55L1608,-55Z" fill="#94c17f" stroke="#94c17f" stroke-width="1.51"/><path d="M1463,-55L1455,58L1608,-55Z" fill="#90c17b" stroke="#90c17b" stroke-width="1.51"/><path d="M1512,489L1534,668L1608,590Z" fill="#4ba25b" stroke="#4ba25b" stroke-width="1.51"/><path d="M31,-262L332,-248L397,-254Z" fill="#f1fac5" stroke="#f1fac5" stroke-width="1.51"/><path d="M1447,1109L1351,1262L1451,1323Z" fill="#1c7840" stroke="#1c7840" stroke-width="1.51"/><path d="M1440,800L1368,893L1473,1015Z" fill="#2e914b" stroke="#2e914b" stroke-width="1.51"/><path d="M1360,-92L1463,-55L1526,-202Z" fill="#99c785" stroke="#99c785" stroke-width="1.51"/><path d="M1300,699L1440,800L1534,668Z" fill="#3da157" stroke="#3da157" stroke-width="1.51"/><path d="M1512,489L1285,525L1534,668Z" fill="#53ab61" stroke="#53ab61" stroke-width="1.51"/><path d="M1285,525L1300,699L1534,668Z" fill="#4cab60" stroke="#4cab60" stroke-width="1.51"/><path d="M1351,1262L1148,1279L1451,1323Z" fill="#207942" stroke="#207942" stroke-width="1.51"/><path d="M1324,-175L1360,-92L1526,-202Z" fill="#9cca8b" stroke="#9cca8b" stroke-width="1.51"/><path d="M1297,345L1446,401L1502,224Z" fill="#74ba6e" stroke="#74ba6e" stroke-width="1.51"/><path d="M1455,58L1347,58L1502,224Z" fill="#8ac278" stroke="#8ac278" stroke-width="1.51"/><path d="M1347,58L1289,205L1502,224Z" fill="#88c477" stroke="#88c477" stroke-width="1.51"/><path d="M1446,401L1285,525L1512,489Z" fill="#61b267" stroke="#61b267" stroke-width="1.51"/><path d="M1289,205L1297,345L1502,224Z" fill="#7ec074" stroke="#7ec074" stroke-width="1.51"/><path d="M1378,1095L1351,1262L1447,1109Z" fill="#1e8144" stroke="#1e8144" stroke-width="1.51"/><path d="M1347,58L1455,58L1463,-55Z" fill="#92c67d" stroke="#92c67d" stroke-width="1.51"/><path d="M1360,-92L1347,58L1463,-55Z" fill="#97c982" stroke="#97c982" stroke-width="1.51"/><path d="M1315,1033L1378,1095L1473,1015Z" fill="#258847" stroke="#258847" stroke-width="1.51"/><path d="M1368,893L1315,1033L1473,1015Z" fill="#2a8d49" stroke="#2a8d49" stroke-width="1.51"/><path d="M1378,1095L1447,1109L1473,1015Z" fill="#228345" stroke="#228345" stroke-width="1.51"/><path d="M1297,345L1285,525L1446,401Z" fill="#6ab96d" stroke="#6ab96d" stroke-width="1.51"/><path d="M1300,699L1368,893L1440,800Z" fill="#389f54" stroke="#389f54" stroke-width="1.51"/><path d="M1285,525L1232,560L1300,699Z" fill="#56b466" stroke="#56b466" stroke-width="1.51"/><path d="M1220,-11L1347,58L1360,-92Z" fill="#9acf84" stroke="#9acf84" stroke-width="1.51"/><path d="M1300,699L1213,859L1368,893Z" fill="#3ba257" stroke="#3ba257" stroke-width="1.51"/><path d="M1197,939L1315,1033L1368,893Z" fill="#31954e" stroke="#31954e" stroke-width="1.51"/><path d="M1235,1173L1351,1262L1378,1095Z" fill="#228347" stroke="#228347" stroke-width="1.51"/><path d="M1315,1033L1235,1173L1378,1095Z" fill="#268a49" stroke="#268a49" stroke-width="1.51"/><path d="M1213,859L1197,939L1368,893Z" fill="#369c53" stroke="#369c53" stroke-width="1.51"/><path d="M1324,-175L1220,-11L1360,-92Z" fill="#a0d189" stroke="#a0d189" stroke-width="1.51"/><path d="M1159,442L1285,525L1297,345Z" fill="#6ebf70" stroke="#6ebf70" stroke-width="1.51"/><path d="M1148,110L1289,205L1347,58Z" fill="#92ce7f" stroke="#92ce7f" stroke-width="1.51"/><path d="M1220,-11L1148,110L1347,58Z" fill="#99d184" stroke="#99d184" stroke-width="1.51"/><path d="M1235,1173L1148,1279L1351,1262Z" fill="#258247" stroke="#258247" stroke-width="1.51"/><path d="M1289,205L1166,233L1297,345Z" fill="#84c879" stroke="#84c879" stroke-width="1.51"/><path d="M1158,-201L1220,-11L1324,-175Z" fill="#a4d590" stroke="#a4d590" stroke-width="1.51"/><path d="M1137,687L1213,859L1300,699Z" fill="#46ad5f" stroke="#46ad5f" stroke-width="1.51"/><path d="M1197,939L1235,1173L1315,1033Z" fill="#2d914d" stroke="#2d914d" stroke-width="1.51"/><path d="M1148,110L1166,233L1289,205Z" fill="#90ce7f" stroke="#90ce7f" stroke-width="1.51"/><path d="M1232,560L1137,687L1300,699Z" fill="#53b365" stroke="#53b365" stroke-width="1.51"/><path d="M1197,939L1081,972L1235,1173Z" fill="#389652" stroke="#389652" stroke-width="1.51"/><path d="M1166,233L1159,442L1297,345Z" fill="#7ec677" stroke="#7ec677" stroke-width="1.51"/><path d="M1159,442L1232,560L1285,525Z" fill="#65bb6e" stroke="#65bb6e" stroke-width="1.51"/><path d="M588,1295L473,1335L936,1333Z" fill="#5b915b" stroke="#5b915b" stroke-width="1.51"/><path d="M1088,736L1089,789L1137,687Z" fill="#52b264" stroke="#52b264" stroke-width="1.51"/><path d="M1137,687L1089,789L1213,859Z" fill="#4aad60" stroke="#4aad60" stroke-width="1.51"/><path d="M1158,-201L1024,-85L1220,-11Z" fill="#acd992" stroke="#acd992" stroke-width="1.51"/><path d="M1021,1100L1148,1279L1235,1173Z" fill="#338c4e" stroke="#338c4e" stroke-width="1.51"/><path d="M1081,972L1021,1100L1235,1173Z" fill="#3b9452" stroke="#3b9452" stroke-width="1.51"/><path d="M1159,442L1014,551L1232,560Z" fill="#6cbf72" stroke="#6cbf72" stroke-width="1.51"/><path d="M1014,551L1137,687L1232,560Z" fill="#62ba6d" stroke="#62ba6d" stroke-width="1.51"/><path d="M1040,1260L936,1333L1148,1279Z" fill="#39864e" stroke="#39864e" stroke-width="1.51"/><path d="M1021,1100L1040,1260L1148,1279Z" fill="#398c50" stroke="#398c50" stroke-width="1.51"/><path d="M987,358L1159,442L1166,233Z" fill="#86cb7c" stroke="#86cb7c" stroke-width="1.51"/><path d="M1024,-85L1148,110L1220,-11Z" fill="#a5d78c" stroke="#a5d78c" stroke-width="1.51"/><path d="M1024,-85L1000,63L1148,110Z" fill="#a9da8e" stroke="#a9da8e" stroke-width="1.51"/><path d="M1089,789L1081,972L1197,939Z" fill="#45a259" stroke="#45a259" stroke-width="1.51"/><path d="M1089,789L1197,939L1213,859Z" fill="#43a45a" stroke="#43a45a" stroke-width="1.51"/><path d="M1009,249L987,358L1166,233Z" fill="#92d081" stroke="#92d081" stroke-width="1.51"/><path d="M694,-239L935,-203L1021,-237Z" fill="#c2e5ab" stroke="#c2e5ab" stroke-width="1.51"/><path d="M1021,-237L1024,-85L1158,-201Z" fill="#b3dd9d" stroke="#b3dd9d" stroke-width="1.51"/><path d="M1148,110L1009,249L1166,233Z" fill="#96d283" stroke="#96d283" stroke-width="1.51"/><path d="M987,358L1014,551L1159,442Z" fill="#7cc779" stroke="#7cc779" stroke-width="1.51"/><path d="M1000,63L1009,249L1148,110Z" fill="#a1d789" stroke="#a1d789" stroke-width="1.51"/><path d="M1014,551L1088,736L1137,687Z" fill="#5fb96b" stroke="#5fb96b" stroke-width="1.51"/><path d="M765,1271L588,1295L936,1333Z" fill="#539058" stroke="#539058" stroke-width="1.51"/><path d="M987,358L930,385L1014,551Z" fill="#85cb7d" stroke="#85cb7d" stroke-width="1.51"/><path d="M930,385L905,490L1014,551Z" fill="#82ca7d" stroke="#82ca7d" stroke-width="1.51"/><path d="M929,989L1021,1100L1081,972Z" fill="#489d59" stroke="#489d59" stroke-width="1.51"/><path d="M912,788L929,989L1081,972Z" fill="#51a85f" stroke="#51a85f" stroke-width="1.51"/><path d="M1014,551L862,648L1088,736Z" fill="#69bd70" stroke="#69bd70" stroke-width="1.51"/><path d="M862,648L912,788L1088,736Z" fill="#62ba6c" stroke="#62ba6c" stroke-width="1.51"/><path d="M1088,736L912,788L1089,789Z" fill="#56b366" stroke="#56b366" stroke-width="1.51"/><path d="M912,788L1081,972L1089,789Z" fill="#51ab61" stroke="#51ab61" stroke-width="1.51"/><path d="M1000,63L893,88L1009,249Z" fill="#a9da8d" stroke="#a9da8d" stroke-width="1.51"/><path d="M880,-66L1000,63L1024,-85Z" fill="#b5df96" stroke="#b5df96" stroke-width="1.51"/><path d="M1021,-237L935,-203L1024,-85Z" fill="#b8e0a1" stroke="#b8e0a1" stroke-width="1.51"/><path d="M1021,1100L841,1108L1040,1260Z" fill="#449556" stroke="#449556" stroke-width="1.51"/><path d="M841,1108L936,1333L1040,1260Z" fill="#459055" stroke="#459055" stroke-width="1.51"/><path d="M900,292L987,358L1009,249Z" fill="#96d384" stroke="#96d384" stroke-width="1.51"/><path d="M893,88L900,292L1009,249Z" fill="#a3d88b" stroke="#a3d88b" stroke-width="1.51"/><path d="M935,-203L880,-66L1024,-85Z" fill="#bbe29d" stroke="#bbe29d" stroke-width="1.51"/><path d="M929,989L841,1108L1021,1100Z" fill="#4d9d5b" stroke="#4d9d5b" stroke-width="1.51"/><path d="M880,-66L893,88L1000,63Z" fill="#b4e094" stroke="#b4e094" stroke-width="1.51"/><path d="M905,490L862,648L1014,551Z" fill="#78c678" stroke="#78c678" stroke-width="1.51"/><path d="M841,1108L765,1271L936,1333Z" fill="#4d9358" stroke="#4d9358" stroke-width="1.51"/><path d="M900,292L930,385L987,358Z" fill="#93d283" stroke="#93d283" stroke-width="1.51"/><path d="M893,88L687,208L900,292Z" fill="#addd8f" stroke="#addd8f" stroke-width="1.51"/><path d="M912,788L689,841L929,989Z" fill="#61b166" stroke="#61b166" stroke-width="1.51"/><path d="M689,841L745,1043L929,989Z" fill="#60aa63" stroke="#60aa63" stroke-width="1.51"/><path d="M761,-90L880,-66L935,-203Z" fill="#c2e6a1" stroke="#c2e6a1" stroke-width="1.51"/><path d="M753,569L862,648L905,490Z" fill="#80c97b" stroke="#80c97b" stroke-width="1.51"/><path d="M694,-239L761,-90L935,-203Z" fill="#c9e8a9" stroke="#c9e8a9" stroke-width="1.51"/><path d="M745,1043L841,1108L929,989Z" fill="#57a25e" stroke="#57a25e" stroke-width="1.51"/><path d="M713,392L905,490L930,385Z" fill="#92d183" stroke="#92d183" stroke-width="1.51"/><path d="M900,292L713,392L930,385Z" fill="#9ad586" stroke="#9ad586" stroke-width="1.51"/><path d="M880,-66L761,-90L893,88Z" fill="#bfe49a" stroke="#bfe49a" stroke-width="1.51"/><path d="M692,94L687,208L893,88Z" fill="#bae395" stroke="#bae395" stroke-width="1.51"/><path d="M862,648L750,692L912,788Z" fill="#6fc071" stroke="#6fc071" stroke-width="1.51"/><path d="M750,692L689,841L912,788Z" fill="#6dbd6f" stroke="#6dbd6f" stroke-width="1.51"/><path d="M761,-90L692,94L893,88Z" fill="#c0e599" stroke="#c0e599" stroke-width="1.51"/><path d="M713,392L753,569L905,490Z" fill="#8fd082" stroke="#8fd082" stroke-width="1.51"/><path d="M687,208L713,392L900,292Z" fill="#a8db8c" stroke="#a8db8c" stroke-width="1.51"/><path d="M709,1118L765,1271L841,1108Z" fill="#579c5d" stroke="#579c5d" stroke-width="1.51"/><path d="M753,569L750,692L862,648Z" fill="#7cc678" stroke="#7cc678" stroke-width="1.51"/><path d="M745,1043L709,1118L841,1108Z" fill="#5ba260" stroke="#5ba260" stroke-width="1.51"/><path d="M632,1113L588,1295L709,1118Z" fill="#62a061" stroke="#62a061" stroke-width="1.51"/><path d="M689,841L620,995L745,1043Z" fill="#6aae66" stroke="#6aae66" stroke-width="1.51"/><path d="M572,537L606,744L750,692Z" fill="#87cb7c" stroke="#87cb7c" stroke-width="1.51"/><path d="M606,744L689,841L750,692Z" fill="#78c273" stroke="#78c273" stroke-width="1.51"/><path d="M713,392L632,423L753,569Z" fill="#9ad586" stroke="#9ad586" stroke-width="1.51"/><path d="M572,537L750,692L753,569Z" fill="#89cd7e" stroke="#89cd7e" stroke-width="1.51"/><path d="M632,423L572,537L753,569Z" fill="#97d385" stroke="#97d385" stroke-width="1.51"/><path d="M618,85L692,94L761,-90Z" fill="#c8e99c" stroke="#c8e99c" stroke-width="1.51"/><path d="M559,-67L618,85L761,-90Z" fill="#cfeca1" stroke="#cfeca1" stroke-width="1.51"/><path d="M694,-239L571,-163L761,-90Z" fill="#d3edac" stroke="#d3edac" stroke-width="1.51"/><path d="M709,1118L588,1295L765,1271Z" fill="#5c995d" stroke="#5c995d" stroke-width="1.51"/><path d="M571,-163L559,-67L761,-90Z" fill="#d5eea7" stroke="#d5eea7" stroke-width="1.51"/><path d="M687,208L581,230L713,392Z" fill="#b3e091" stroke="#b3e091" stroke-width="1.51"/><path d="M632,1113L709,1118L745,1043Z" fill="#62a462" stroke="#62a462" stroke-width="1.51"/><path d="M620,995L632,1113L745,1043Z" fill="#67a964" stroke="#67a964" stroke-width="1.51"/><path d="M554,868L620,995L689,841Z" fill="#73b66c" stroke="#73b66c" stroke-width="1.51"/><path d="M618,85L687,208L692,94Z" fill="#c3e798" stroke="#c3e798" stroke-width="1.51"/><path d="M397,-254L571,-163L694,-239Z" fill="#ddf1b6" stroke="#ddf1b6" stroke-width="1.51"/><path d="M581,230L632,423L713,392Z" fill="#addd8d" stroke="#addd8d" stroke-width="1.51"/><path d="M618,85L581,230L687,208Z" fill="#c1e697" stroke="#c1e697" stroke-width="1.51"/><path d="M606,744L554,868L689,841Z" fill="#79be72" stroke="#79be72" stroke-width="1.51"/><path d="M279,1248L82,1248L473,1335Z" fill="#77a169" stroke="#77a169" stroke-width="1.51"/><path d="M82,1248L-61,1299L473,1335Z" fill="#7ca16c" stroke="#7ca16c" stroke-width="1.51"/><path d="M572,537L397,636L606,744Z" fill="#92d081" stroke="#92d081" stroke-width="1.51"/><path d="M473,54L581,230L618,85Z" fill="#cbea9c" stroke="#cbea9c" stroke-width="1.51"/><path d="M559,-67L473,54L618,85Z" fill="#d3eda2" stroke="#d3eda2" stroke-width="1.51"/><path d="M581,230L457,357L632,423Z" fill="#b4e191" stroke="#b4e191" stroke-width="1.51"/><path d="M457,357L572,537L632,423Z" fill="#a8db8c" stroke="#a8db8c" stroke-width="1.51"/><path d="M620,995L463,1151L632,1113Z" fill="#6ca966" stroke="#6ca966" stroke-width="1.51"/><path d="M463,1151L588,1295L632,1113Z" fill="#68a163" stroke="#68a163" stroke-width="1.51"/><path d="M460,263L457,357L581,230Z" fill="#bfe596" stroke="#bfe596" stroke-width="1.51"/><path d="M554,868L379,1027L620,995Z" fill="#77b46c" stroke="#77b46c" stroke-width="1.51"/><path d="M379,1027L463,1151L620,995Z" fill="#74ae6a" stroke="#74ae6a" stroke-width="1.51"/><path d="M473,54L460,263L581,230Z" fill="#c9e99b" stroke="#c9e99b" stroke-width="1.51"/><path d="M399,825L554,868L606,744Z" fill="#81c276" stroke="#81c276" stroke-width="1.51"/><path d="M397,636L399,825L606,744Z" fill="#8bcb7c" stroke="#8bcb7c" stroke-width="1.51"/><path d="M457,357L403,565L572,537Z" fill="#a8db8c" stroke="#a8db8c" stroke-width="1.51"/><path d="M403,565L397,636L572,537Z" fill="#9ed688" stroke="#9ed688" stroke-width="1.51"/><path d="M463,1151L473,1335L588,1295Z" fill="#689c62" stroke="#689c62" stroke-width="1.51"/><path d="M430,-75L559,-67L571,-163Z" fill="#ddf1ab" stroke="#ddf1ab" stroke-width="1.51"/><path d="M399,825L379,1027L554,868Z" fill="#80bc72" stroke="#80bc72" stroke-width="1.51"/><path d="M430,-75L473,54L559,-67Z" fill="#dbf1a7" stroke="#dbf1a7" stroke-width="1.51"/><path d="M397,-254L430,-75L571,-163Z" fill="#e3f3b3" stroke="#e3f3b3" stroke-width="1.51"/><path d="M31,-262L89,-232L332,-248Z" fill="#f6fbc8" stroke="#f6fbc8" stroke-width="1.51"/><path d="M397,636L290,708L399,825Z" fill="#95cf81" stroke="#95cf81" stroke-width="1.51"/><path d="M294,403L403,565L457,357Z" fill="#b4e092" stroke="#b4e092" stroke-width="1.51"/><path d="M463,1151L279,1248L473,1335Z" fill="#71a066" stroke="#71a066" stroke-width="1.51"/><path d="M282,90L330,204L473,54Z" fill="#daf1a3" stroke="#daf1a3" stroke-width="1.51"/><path d="M430,-75L300,-65L473,54Z" fill="#e2f3aa" stroke="#e2f3aa" stroke-width="1.51"/><path d="M300,-65L282,90L473,54Z" fill="#e1f3a9" stroke="#e1f3a9" stroke-width="1.51"/><path d="M330,204L460,263L473,54Z" fill="#d0ec9f" stroke="#d0ec9f" stroke-width="1.51"/><path d="M290,847L379,1027L399,825Z" fill="#87bf75" stroke="#87bf75" stroke-width="1.51"/><path d="M397,-254L332,-248L430,-75Z" fill="#e9f6b9" stroke="#e9f6b9" stroke-width="1.51"/><path d="M330,204L294,403L457,357Z" fill="#c5e799" stroke="#c5e799" stroke-width="1.51"/><path d="M330,204L457,357L460,263Z" fill="#c6e799" stroke="#c6e799" stroke-width="1.51"/><path d="M379,1027L258,1101L463,1151Z" fill="#7baf6d" stroke="#7baf6d" stroke-width="1.51"/><path d="M258,1101L279,1248L463,1151Z" fill="#79aa6b" stroke="#79aa6b" stroke-width="1.51"/><path d="M290,847L293,1006L379,1027Z" fill="#85ba73" stroke="#85ba73" stroke-width="1.51"/><path d="M332,-248L300,-65L430,-75Z" fill="#eaf7b3" stroke="#eaf7b3" stroke-width="1.51"/><path d="M294,403L263,487L403,565Z" fill="#b3df92" stroke="#b3df92" stroke-width="1.51"/><path d="M263,487L290,708L397,636Z" fill="#a4d88a" stroke="#a4d88a" stroke-width="1.51"/><path d="M290,708L290,847L399,825Z" fill="#90ca7d" stroke="#90ca7d" stroke-width="1.51"/><path d="M263,487L397,636L403,565Z" fill="#a7da8c" stroke="#a7da8c" stroke-width="1.51"/><path d="M293,1006L258,1101L379,1027Z" fill="#81b370" stroke="#81b370" stroke-width="1.51"/><path d="M263,487L172,699L290,708Z" fill="#a5d88b" stroke="#a5d88b" stroke-width="1.51"/><path d="M290,847L190,975L293,1006Z" fill="#89bc75" stroke="#89bc75" stroke-width="1.51"/><path d="M89,-232L93,-73L300,-65Z" fill="#f3fbba" stroke="#f3fbba" stroke-width="1.51"/><path d="M282,90L166,121L330,204Z" fill="#ddf2a6" stroke="#ddf2a6" stroke-width="1.51"/><path d="M139,287L294,403L330,204Z" fill="#cdea9e" stroke="#cdea9e" stroke-width="1.51"/><path d="M89,-232L300,-65L332,-248Z" fill="#f0f9bd" stroke="#f0f9bd" stroke-width="1.51"/><path d="M166,121L139,287L330,204Z" fill="#d9f0a4" stroke="#d9f0a4" stroke-width="1.51"/><path d="M108,489L172,699L263,487Z" fill="#b1de93" stroke="#b1de93" stroke-width="1.51"/><path d="M136,868L190,975L290,847Z" fill="#8fc27a" stroke="#8fc27a" stroke-width="1.51"/><path d="M290,708L172,699L290,847Z" fill="#97cf83" stroke="#97cf83" stroke-width="1.51"/><path d="M172,699L136,868L290,847Z" fill="#96cb81" stroke="#96cb81" stroke-width="1.51"/><path d="M166,121L282,90L300,-65Z" fill="#e4f5ab" stroke="#e4f5ab" stroke-width="1.51"/><path d="M93,-73L166,121L300,-65Z" fill="#ebf8b0" stroke="#ebf8b0" stroke-width="1.51"/><path d="M258,1101L95,1142L279,1248Z" fill="#7fad70" stroke="#7fad70" stroke-width="1.51"/><path d="M190,975L258,1101L293,1006Z" fill="#85b673" stroke="#85b673" stroke-width="1.51"/><path d="M86,411L263,487L294,403Z" fill="#bee499" stroke="#bee499" stroke-width="1.51"/><path d="M139,287L86,411L294,403Z" fill="#c9e99e" stroke="#c9e99e" stroke-width="1.51"/><path d="M86,411L108,489L263,487Z" fill="#bee499" stroke="#bee499" stroke-width="1.51"/><path d="M95,1142L82,1248L279,1248Z" fill="#80a96f" stroke="#80a96f" stroke-width="1.51"/><path d="M190,975L95,1142L258,1101Z" fill="#86b473" stroke="#86b473" stroke-width="1.51"/><path d="M-7,133L139,287L166,121Z" fill="#e1f3aa" stroke="#e1f3aa" stroke-width="1.51"/><path d="M93,-73L-7,133L166,121Z" fill="#ecf8b0" stroke="#ecf8b0" stroke-width="1.51"/><path d="M108,489L-30,693L172,699Z" fill="#aedb91" stroke="#aedb91" stroke-width="1.51"/><path d="M22,872L136,868L172,699Z" fill="#9acc83" stroke="#9acc83" stroke-width="1.51"/><path d="M-71,1039L95,1142L190,975Z" fill="#8cb878" stroke="#8cb878" stroke-width="1.51"/><path d="M22,872L-71,1039L190,975Z" fill="#92bf7c" stroke="#92bf7c" stroke-width="1.51"/><path d="M136,868L22,872L190,975Z" fill="#93c37d" stroke="#93c37d" stroke-width="1.51"/><path d="M-7,133L16,293L139,287Z" fill="#ddf1a9" stroke="#ddf1a9" stroke-width="1.51"/><path d="M-30,693L22,872L172,699Z" fill="#a1d38a" stroke="#a1d38a" stroke-width="1.51"/><path d="M-71,1039L-53,1098L95,1142Z" fill="#8bb67c" stroke="#8bb67c" stroke-width="1.51"/><path d="M-38,493L-30,693L108,489Z" fill="#b8e09a" stroke="#b8e09a" stroke-width="1.51"/><path d="M9,362L86,411L139,287Z" fill="#cfeba2" stroke="#cfeba2" stroke-width="1.51"/><path d="M16,293L9,362L139,287Z" fill="#d4eea5" stroke="#d4eea5" stroke-width="1.51"/><path d="M31,-262L-45,-115L89,-232Z" fill="#fafdc9" stroke="#fafdc9" stroke-width="1.51"/><path d="M89,-232L-45,-115L93,-73Z" fill="#f9fdc1" stroke="#f9fdc1" stroke-width="1.51"/><path d="M-45,-115L-7,133L93,-73Z" fill="#f3fbba" stroke="#f3fbba" stroke-width="1.51"/><path d="M86,411L-38,493L108,489Z" fill="#c2e59d" stroke="#c2e59d" stroke-width="1.51"/><path d="M-53,1098L82,1248L95,1142Z" fill="#87b076" stroke="#87b076" stroke-width="1.51"/><path d="M-53,1098L-61,1299L82,1248Z" fill="#85ab77" stroke="#85ab77" stroke-width="1.51"/><path d="M9,362L-38,493L86,411Z" fill="#c8e8a2" stroke="#c8e8a2" stroke-width="1.51"/><path d="M-45,-115L-161,-11L-7,133Z" fill="#f3fabe" stroke="#f3fabe" stroke-width="1.51"/><path d="M-38,493L-111,639L-30,693Z" fill="#b3dd9d" stroke="#b3dd9d" stroke-width="1.51"/><path d="M-161,-11L-135,133L-7,133Z" fill="#eef8bc" stroke="#eef8bc" stroke-width="1.51"/><path d="M-7,133L-161,260L16,293Z" fill="#dff2b1" stroke="#dff2b1" stroke-width="1.51"/><path d="M-30,693L-116,795L22,872Z" fill="#a0d08e" stroke="#a0d08e" stroke-width="1.51"/><path d="M-124,-175L-45,-115L31,-262Z" fill="#fbfdcd" stroke="#fbfdcd" stroke-width="1.51"/><path d="M-135,133L-161,260L-7,133Z" fill="#e6f5b7" stroke="#e6f5b7" stroke-width="1.51"/><path d="M-116,795L-71,1039L22,872Z" fill="#97c587" stroke="#97c587" stroke-width="1.51"/><path d="M-173,417L-38,493L9,362Z" fill="#c9e8a8" stroke="#c9e8a8" stroke-width="1.51"/><path d="M-161,260L9,362L16,293Z" fill="#d7efad" stroke="#d7efad" stroke-width="1.51"/><path d="M-204,1164L-61,1299L-53,1098Z" fill="#88ae7f" stroke="#88ae7f" stroke-width="1.51"/><path d="M-161,260L-173,417L9,362Z" fill="#d3edaf" stroke="#d3edaf" stroke-width="1.51"/><path d="M-116,795L-192,1027L-71,1039Z" fill="#95c089" stroke="#95c089" stroke-width="1.51"/><path d="M-172,569L-111,639L-38,493Z" fill="#b8e0a3" stroke="#b8e0a3" stroke-width="1.51"/><path d="M-204,1164L-198,1267L-61,1299Z" fill="#85a980" stroke="#85a980" stroke-width="1.51"/><path d="M-111,639L-116,795L-30,693Z" fill="#a8d797" stroke="#a8d797" stroke-width="1.51"/><path d="M-173,417L-172,569L-38,493Z" fill="#c1e5a9" stroke="#c1e5a9" stroke-width="1.51"/><path d="M-124,-175L-161,-11L-45,-115Z" fill="#fafdc8" stroke="#fafdc8" stroke-width="1.51"/><path d="M-71,1039L-192,1027L-53,1098Z" fill="#8fb984" stroke="#8fb984" stroke-width="1.51"/><path d="M-192,1027L-204,1164L-53,1098Z" fill="#8db686" stroke="#8db686" stroke-width="1.51"/><path d="M-172,569L-116,795L-111,639Z" fill="#adda9d" stroke="#adda9d" stroke-width="1.51"/><path d="M-172,569L-192,1027L-116,795Z" fill="#a1d096" stroke="#a1d096" stroke-width="1.51"/><path d="M-161,-11L-161,260L-135,133Z" fill="#ebf7bd" stroke="#ebf7bd" stroke-width="1.51"/><path d="M-173,417L-161,260L-161,-11Z" fill="#e1f3b9" stroke="#e1f3b9" stroke-width="1.51"/><path d="M-173,417L-192,1027L-172,569Z" fill="#aedaa0" stroke="#aedaa0" stroke-width="1.51"/><path d="M-204,1164L-192,1027L-173,417Z" fill="#9cc993" stroke="#9cc993" stroke-width="1.51"/></svg>